<svg width="1024" height="1024" viewBox="0 0 1024 1024" fill="none" xmlns="http://www.w3.org/2000/svg">
<path d="M409.082 20.0999C417.076 19.8483 424.453 19.8905 432.093 22.4524C433.189 22.8259 434.278 23.1746 435.392 23.4964C435.799 23.6047 436.194 23.7096 436.59 23.8147C437.008 23.9265 437.414 24.0353 437.819 24.1438C438.126 24.2247 438.424 24.3037 438.722 24.3821V25.2454C440.056 25.1311 440.751 25.1725 441.933 25.8392C442.309 26.0777 442.674 26.3088 443.039 26.5403C444.808 27.1205 446.477 27.7624 448.159 28.554C448.455 28.695 448.742 28.8321 449.029 28.969C450.055 29.4533 451.081 29.9386 452.105 30.4261V31.2894C452.986 31.4361 453.841 31.5785 454.696 31.721V32.5843C455.63 32.5285 455.63 32.529 456.683 33.0569C457.126 33.2633 457.558 33.464 457.988 33.6644C458.762 34.0225 459.536 34.3818 460.309 34.7435V35.6067C461.553 35.5056 461.553 35.5059 462.349 36.0022C464.175 37.2218 466.036 38.3389 467.955 39.4056C468.291 39.591 468.617 39.7715 468.943 39.9515C470.878 41.0295 472.818 42.0883 474.799 43.0794C475.303 43.3276 475.793 43.569 476.282 43.8099V44.6731C479.185 45.4257 479.185 45.4261 481.76 47.1829C482.899 47.8742 484.04 48.5514 485.206 49.1966C486.894 50.1073 488.577 51.0241 490.255 51.9534C490.743 52.2304 491.217 52.4991 491.69 52.7679C492.976 53.4697 492.976 53.4702 493.983 54.1712V55.0345C496.018 55.0345 497.188 55.7208 498.841 56.8968C500.263 57.9452 501.737 58.8058 503.288 59.6487C505.655 60.9173 508.015 62.1985 510.355 63.5159C510.958 63.8659 510.959 63.8662 511.55 64.2093C512.603 64.7944 512.603 64.7942 513.411 65.3958V66.2601C514.922 66.4877 514.923 66.4873 516.303 67.2024C516.577 67.3405 516.843 67.4746 517.108 67.6087C518.918 68.5154 520.651 69.4472 522.316 70.6038C524.236 71.9502 526.283 72.9616 528.389 73.9866C528.728 74.1483 529.057 74.3053 529.386 74.4622V75.3265C530.912 75.7625 530.912 75.7623 532.408 76.1897V77.053C533.689 76.9265 533.689 76.9264 534.485 77.6194C535.43 78.348 535.43 78.348 536.833 79.0765C537.237 79.2691 537.629 79.4569 538.021 79.6438V80.5071H539.747C540.61 81.3706 540.611 81.3702 541.521 81.8997C543.878 83.1479 546.207 84.4363 548.517 85.7688C549.958 86.6021 551.396 87.4106 552.88 88.1653C553.259 88.3505 553.626 88.5305 553.994 88.7103V89.5735C554.867 89.5029 554.867 89.503 555.562 89.97C556.794 90.779 558.027 91.5717 559.312 92.2952C560.73 93.0679 562.117 93.837 563.466 94.7269C564.657 95.5294 565.866 96.2474 567.108 96.9671C568.222 97.5787 568.222 97.5789 569.105 98.2083V99.0716C570.366 98.9555 570.366 98.9555 571.146 99.5472C572.72 100.811 574.312 101.976 576.013 103.065C576.985 103.654 576.985 103.654 577.739 104.252V105.116C578.644 105.039 578.644 105.039 579.428 105.637C579.744 105.873 580.051 106.101 580.357 106.329C581.286 106.985 581.285 106.986 582.057 107.706C582.203 108.147 582.347 108.574 582.489 109.001H583.353C584.402 109.657 585.002 110.16 585.619 111.241C585.729 111.507 585.836 111.765 585.942 112.024C586.882 111.926 586.882 111.926 587.608 112.764C587.923 113.099 588.228 113.425 588.533 113.75C590.595 115.925 592.523 118.147 594.28 120.577C594.808 121.326 595.338 122.073 595.872 122.817C596.841 123.992 597.529 124.713 597.923 126.19C597.96 126.511 597.996 126.822 598.031 127.134H598.895C600.112 129.1 601.125 130.93 601.62 133.205C601.721 133.783 601.819 134.345 601.917 134.906H602.78C604.391 139.263 605.467 143.581 606.321 148.144C606.568 149.49 606.824 150.833 607.098 152.174C607.624 154.705 608.017 157.203 608.204 159.783C608.267 160.845 608.329 161.907 608.393 162.968C608.734 167.907 608.884 172.809 608.87 177.759C608.868 178.568 608.866 179.376 608.865 180.185C608.864 181.947 608.863 183.71 608.859 185.473C608.853 188.306 608.85 191.14 608.848 193.973C608.843 200.547 608.834 207.122 608.824 213.697C608.815 219.747 608.807 225.798 608.803 231.849C608.801 234.247 608.799 236.645 608.795 239.043C608.776 247.949 608.76 256.855 608.938 265.759C608.955 266.529 608.972 267.299 608.988 268.069C609.073 272.683 609.307 277.215 609.903 281.794C610.013 282.616 610.013 282.616 610.12 283.421C610.506 286.593 610.975 289.584 611.9 292.65C612.415 294.343 612.825 295.84 612.818 297.615C612.782 298.073 612.746 298.518 612.71 298.963H613.573C613.854 300.004 614.064 301.029 614.248 302.093C614.312 302.497 614.374 302.889 614.437 303.281H615.301C615.493 303.574 615.68 303.859 615.867 304.144C616.273 304.866 616.69 305.583 617.144 306.276C618.004 307.585 618.693 308.666 619.105 310.189C619.133 310.482 619.16 310.767 619.187 311.052H620.481C621.228 311.619 621.228 311.619 621.776 312.347V313.21C623.062 313.101 623.062 313.102 623.987 313.747C625.909 315.102 627.561 316.519 629.94 316.828C631.251 316.905 632.558 316.98 633.865 317.096C635.933 317.785 637.964 317.611 640.098 317.339C641.288 317.151 642.462 317.003 643.66 316.88C651.248 316.125 659.785 312.686 666.299 308.867C668.053 307.826 669.779 306.908 671.695 306.195C672.899 305.749 673.517 305.505 674.448 304.603C675.37 303.653 676.123 303.261 677.308 302.687C679.258 301.754 681.099 300.708 682.942 299.58C684.694 298.503 686.461 297.457 688.246 296.436C688.509 296.286 688.764 296.141 689.019 295.995C690.431 295.188 691.843 294.382 693.271 293.601C694.508 292.929 695.728 292.266 696.892 291.471C698.995 289.996 701.151 288.811 703.455 287.685C705.027 286.932 706.549 286.194 708.008 285.236C709.705 284.091 711.457 283.061 713.224 282.027C713.7 281.749 714.163 281.478 714.626 281.208C715.337 280.79 715.337 280.79 716.033 280.38C716.496 280.11 716.945 279.848 717.394 279.586C718.182 279.125 718.976 278.675 719.779 278.241C720.5 277.954 721.22 277.667 721.938 277.377C723.159 276.376 724.038 275.673 725.527 275.111C725.922 275.001 726.305 274.893 726.688 274.786V273.923C727.733 273.488 728.751 273.085 729.845 272.789C730.212 272.708 730.213 272.708 730.573 272.628V271.764L733.163 271.332V270.469C734.087 269.983 734.087 269.983 735.376 269.578C735.798 269.441 736.208 269.308 736.617 269.174V268.311C737.498 268.164 738.353 268.022 739.208 267.879V267.015C740.238 266.46 741.228 266.051 742.338 265.666C742.742 265.538 743.134 265.413 743.525 265.288V264.425C744.688 263.87 745.842 263.304 746.979 262.698C748.288 261.799 749.272 261.048 750.811 260.647C751.122 260.61 751.425 260.575 751.728 260.539V259.676C752.606 259.192 752.607 259.191 753.725 259.001C754.073 258.937 754.412 258.875 754.75 258.813V257.949C755.009 257.819 755.261 257.693 755.513 257.568L759.067 255.79C759.536 255.551 759.992 255.318 760.447 255.085C761.14 254.733 761.14 254.732 761.819 254.387C762.966 253.8 764.025 253.263 765.264 252.909C765.623 252.838 765.623 252.838 765.975 252.768V251.905C766.389 251.777 766.389 251.777 766.795 251.652C767.158 251.536 767.511 251.423 767.864 251.311C768.537 251.099 769.204 250.868 769.86 250.61C770.799 249.671 771.685 249.301 772.905 248.815C773.2 248.7 773.487 248.589 773.773 248.478C775.621 247.749 777.469 247.043 779.358 246.427C779.936 246.245 780.513 246.057 781.086 245.861C783.005 244.955 784.692 244.43 786.779 244.107C787.619 243.994 788.457 243.86 789.289 243.701C789.861 243.406 790.436 243.118 791.016 242.838C792.089 242.84 793.074 242.858 794.13 242.653C796.673 242.03 799.079 241.874 801.692 241.878C802.191 241.884 802.675 241.889 803.158 241.894C812.204 241.899 821.189 243.877 829.439 247.668C830.371 248.113 831.243 248.473 832.234 248.768C834.068 249.266 835.637 249.756 837.238 250.798C838.372 251.557 839.465 252.176 840.719 252.714C844.836 254.593 844.837 254.593 848.868 256.654V257.517L851.026 257.949V258.813C851.926 259.01 852.739 259.237 853.583 259.61C854.012 259.828 854.013 259.828 854.433 260.041C854.748 260.2 855.054 260.356 855.36 260.51C855.685 260.676 856 260.837 856.315 260.998C857.432 261.563 858.547 262.129 859.661 262.698V263.562C860.538 263.498 860.539 263.498 861.292 263.943C862.762 264.788 864.235 265.624 865.722 266.44C866.165 266.681 866.597 266.915 867.027 267.15C867.445 267.377 867.851 267.599 868.257 267.82C868.712 268.067 868.713 268.068 869.159 268.311V269.174C870.808 269.488 870.808 269.488 872.27 270.402C872.885 270.757 873.501 271.112 874.118 271.464C874.442 271.648 874.756 271.826 875.07 272.005C876.192 272.644 877.316 273.274 878.453 273.884C881.939 275.739 885.397 277.638 888.739 279.742C889.92 280.496 891.009 281.194 892.311 281.721C893.405 282.115 893.406 282.115 894.551 282.908C896.741 284.412 898.945 285.821 901.323 287.01C902.086 287.378 902.086 287.378 902.834 287.739V288.602C903.568 288.749 904.281 288.891 904.993 289.033V289.897C906.249 289.812 906.25 289.812 907.17 290.275C907.485 290.44 907.79 290.601 908.096 290.761C908.646 291.046 909.195 291.333 909.742 291.624V292.488C911.086 292.371 911.087 292.371 912.201 293.237C913.472 294.128 914.786 294.868 916.157 295.594C916.453 295.749 916.74 295.899 917.027 296.049C917.611 296.357 918.195 296.666 918.778 296.974C919.229 297.21 919.666 297.439 920.104 297.668V298.532C922.583 299.12 922.583 299.12 924.807 300.538C926.798 301.717 928.792 302.889 930.816 304.009C933.766 305.628 936.645 307.338 939.505 309.11C941.411 310.296 943.304 311.452 945.321 312.442C945.843 312.688 946.36 312.943 946.871 313.21C948.474 314.493 949.958 315.46 951.804 316.347C952.035 316.455 952.259 316.56 952.483 316.664V317.528C954.049 317.818 954.049 317.818 955.418 318.713C955.686 318.879 955.947 319.04 956.207 319.2C957.156 319.767 958.053 320.346 958.96 320.982V321.845C959.846 321.78 959.847 321.781 960.633 322.257C960.945 322.447 961.247 322.632 961.55 322.817C962.624 323.457 963.188 323.85 963.816 324.942C963.98 325.34 963.98 325.34 964.141 325.731H965.867L966.299 327.457C967.578 327.346 967.578 327.347 968.461 327.979C968.923 328.329 968.923 328.329 969.375 328.672C970.292 329.327 970.292 329.327 971.048 330.048L971.479 331.343C972.395 331.257 972.395 331.258 973.152 331.944C973.464 332.217 973.768 332.481 974.07 332.746C975.03 333.572 975.717 334.223 976.337 335.33C976.5 335.715 976.5 335.715 976.66 336.092C977.629 335.992 977.629 335.993 978.428 336.961C978.781 337.354 979.124 337.735 979.467 338.117C980.517 339.267 981.32 340.211 981.963 341.632C982.12 342.105 982.12 342.105 982.273 342.569H983.137C986.721 346.144 989.181 351.437 990.938 356.134C991.075 356.513 991.207 356.88 991.34 357.247C992.642 360.672 993.756 364.044 994.526 367.629C994.687 368.4 994.855 369.169 995.033 369.936C995.796 373.196 996.591 376.552 996.547 379.913C996.533 380.676 996.534 380.676 996.521 381.424C998.241 393.894 998.241 393.894 997.627 406.546C997.278 413.998 997.291 421.408 997.627 428.861C997.664 429.555 997.663 429.556 997.699 430.237C997.721 430.685 997.742 431.121 997.763 431.556C997.825 432.711 997.843 433.83 997.725 434.982C997.318 438.646 997.318 438.646 997.325 446.876C997.326 447.769 997.326 448.662 997.326 449.554C997.325 451.424 997.325 453.296 997.326 455.166C997.329 457.589 997.33 460.011 997.327 462.434C997.325 464.332 997.325 466.23 997.325 468.128C997.326 469.033 997.326 469.939 997.326 470.844C997.325 472.141 997.323 473.438 997.325 474.735C997.326 475.139 997.327 475.532 997.328 475.925C997.324 477.686 997.301 479.386 997.603 481.124C997.852 482.021 997.853 482.021 997.818 482.982C997.795 483.31 997.771 483.629 997.748 483.948C997.713 484.488 997.713 484.488 997.679 485.018C997.626 485.752 997.573 486.487 997.521 487.221C997.486 487.761 997.485 487.762 997.451 488.291C997.381 489.257 997.381 489.257 997.384 490.221C997.628 491.368 997.819 492.314 997.756 493.49C997.397 496.511 997.396 499.432 997.521 502.469C997.791 508.468 997.956 514.454 997.384 520.443C997.155 522.011 996.949 523.526 996.876 525.111C996.716 530.195 995.975 535.092 995.006 540.082C994.934 540.451 994.863 540.808 994.793 541.165C994.239 544.058 993.511 546.84 992.568 549.628C992.453 549.962 992.341 550.286 992.229 550.61C991.616 552.397 990.969 554.079 990.018 555.716C989.33 556.885 988.791 557.991 988.29 559.244C987.93 560.224 987.93 560.224 987.454 561.025C986.8 561.243 986.799 561.243 986.158 561.456C985.813 563.268 985.814 563.268 984.863 564.91H984V565.774H983.137C982.986 566.888 982.896 567.703 982.165 568.58C980.923 569.645 979.749 570.788 978.703 572.046C976.349 574.929 973.612 577.579 970.523 579.662C970.115 579.931 969.718 580.192 969.321 580.453C968.334 581.471 967.707 582.129 966.407 582.72C966.077 582.83 965.756 582.936 965.436 583.043V583.907C964.482 584.814 964.481 584.815 963.276 585.634C961.164 586.38 959.613 587.547 957.854 588.899C957.56 589.124 957.275 589.344 956.99 589.563C956.705 589.778 956.428 589.987 956.151 590.196C955.308 590.845 954.711 591.226 953.685 591.528C953.423 591.579 953.169 591.628 952.915 591.678V592.541L950.757 592.973V593.836C949.454 594.543 948.155 595.255 946.871 595.995C945.557 596.905 944.584 597.643 943.039 598.046C942.576 598.101 942.576 598.1 942.122 598.154V599.018C940.493 600.236 938.772 601.175 936.954 602.081C936.647 602.232 936.349 602.379 936.051 602.526C934.492 603.305 932.941 604.067 931.33 604.735C931.036 604.846 930.75 604.954 930.465 605.062V605.925C925.646 608.585 920.803 611.212 916.132 614.126C913.827 615.569 911.541 616.931 909.095 618.121C908.293 618.496 907.5 618.891 906.72 619.309C905.651 620.176 904.769 620.947 903.5 621.488C903.154 621.591 902.819 621.691 902.483 621.791C902.132 621.899 901.79 622.004 901.449 622.109C901.186 622.184 900.931 622.258 900.676 622.331V623.195C899.66 623.385 898.939 623.632 898.052 624.174C896.516 625.265 895.009 626.289 893.31 627.107C892.069 627.696 890.928 628.358 889.774 629.104C888.895 629.691 888.209 630.086 887.19 630.38C886.931 630.432 886.68 630.483 886.429 630.533V631.398C885.466 631.871 884.516 632.361 883.57 632.867C883.157 633.092 882.755 633.311 882.354 633.53C881.177 634.169 880.01 634.817 878.858 635.5C878.497 635.72 878.145 635.934 877.794 636.147C876.355 637.01 874.916 637.873 873.477 638.737C872.435 639.374 871.404 639.988 870.314 640.539C868.374 641.472 866.513 642.465 864.68 643.594C863.674 644.229 862.837 644.736 861.695 645.072C861.444 645.12 861.2 645.166 860.956 645.213V646.076C859.926 646.631 858.936 647.041 857.826 647.425C857.423 647.554 857.03 647.678 856.639 647.803V648.666C855.453 649.089 854.464 649.541 853.416 650.245C851.837 651.423 850.437 652.444 848.598 653.173C848.249 653.256 847.911 653.335 847.572 653.415V654.28C846.457 655.076 845.533 655.545 844.199 655.871C843.878 655.917 843.566 655.962 843.255 656.006V656.869H842.392V657.733C841.305 658.478 840.232 659.029 839.019 659.541C838.698 659.661 838.386 659.776 838.074 659.892V660.755C837.044 661.471 836.121 661.989 834.917 662.347C834.669 662.393 834.429 662.437 834.188 662.482C834.175 663.331 834.175 663.332 833.757 664.209C833.326 664.356 832.908 664.499 832.489 664.641C831.167 665.073 831.167 665.073 830.708 665.936C830.358 666.92 830.358 666.921 829.17 667.339C828.652 667.503 828.652 667.503 828.145 667.663V668.527L826.418 668.958C825.77 669.552 825.77 669.552 825.122 670.253V671.117H824.259C824.235 671.167 824.21 671.217 824.187 671.265C823.925 671.399 823.647 671.652 823.146 672.125C822.752 672.538 822.369 672.939 821.986 673.339C821.573 673.734 821.172 674.116 820.771 674.499C820.345 674.95 820.112 675.197 819.983 675.412C819.969 675.419 819.955 675.427 819.941 675.434C819.795 675.874 819.652 676.302 819.51 676.73L817.352 678.888C816.995 680.158 816.995 680.158 816.338 681.027C814.332 683.713 812.603 686.518 811.199 689.495C811.197 689.436 811.195 689.376 811.192 689.314H810.761L809.466 693.199H809.659C809.414 693.874 809.185 694.558 808.973 695.251L808.717 696.158H807.854C807.773 696.459 807.579 696.815 807.501 697.108C807.389 697.522 807.28 697.924 807.172 698.325C806.934 699.208 806.69 700.09 806.443 700.97C806.142 701.919 805.859 702.857 805.603 703.798C805.53 704.036 805.459 704.273 805.387 704.51C805.306 704.774 805.227 705.031 805.148 705.287L805.217 705.322C804.967 706.377 804.755 707.444 804.596 708.541C804.545 708.921 804.496 709.29 804.447 709.658C804.23 711.225 804.048 712.789 803.896 714.354H803.854C803.822 714.858 803.79 715.358 803.759 715.857C803.608 717.652 803.496 719.451 803.422 721.261H803.733C803.724 721.405 803.715 721.549 803.706 721.694H803.422C802.99 722.125 802.989 722.125 802.94 722.967C802.943 723.337 802.945 723.697 802.947 724.056C802.949 724.456 802.951 724.845 802.952 725.233C802.954 725.418 802.954 725.601 802.956 725.783C802.954 725.834 802.954 725.886 802.951 725.938C802.937 726.217 802.918 726.498 802.896 726.78C802.878 726.999 802.861 727.208 802.844 727.408C802.497 731.518 802.497 731.943 802.499 740.981C802.502 742.614 802.504 744.247 802.502 745.88C802.5 746.96 802.499 748.041 802.499 749.121C802.499 749.646 802.501 750.155 802.501 750.664C802.5 751.169 802.499 751.66 802.498 752.15C802.499 752.618 802.501 753.072 802.502 753.527C802.502 753.894 802.509 754.248 802.524 754.594C802.53 758.3 802.533 762.006 802.535 765.711C802.538 771.812 802.542 777.914 802.548 784.015C802.548 784.391 802.548 784.756 802.549 785.121C802.552 788.084 802.555 791.046 802.558 794.008C802.56 796.596 802.563 799.185 802.565 801.773C802.566 802.148 802.567 802.513 802.567 802.877C802.572 807.325 802.574 811.774 802.577 816.222C802.571 816.229 802.564 816.236 802.558 816.242C802.521 817.259 802.533 818.265 802.579 819.267C802.579 819.92 802.581 820.574 802.581 821.227C802.583 824.989 802.585 828.752 802.591 832.515C802.595 835.112 802.597 837.71 802.599 840.308C802.599 841.524 802.6 842.74 802.601 843.955C802.611 848.867 802.579 853.766 802.44 858.667C802.412 859.172 802.387 859.679 802.366 860.189C802.349 860.651 802.332 861.099 802.315 861.547C802.251 863.139 802.186 864.731 802.126 866.324C802.271 866.186 802.4 866.062 802.518 865.948C802.324 867.808 802.079 869.661 801.767 871.504H801.263C801.153 872.017 801.049 872.528 800.949 873.038C800.571 874.947 800.243 876.858 799.968 878.79C799.796 880.067 799.663 881.16 799.119 882.329C798.679 883.147 798.673 883.161 798.337 884.149C798.307 884.11 798.276 884.068 798.241 884.025C797.767 885.89 797.3 887.745 796.945 889.637C797.029 889.595 797.097 889.56 797.155 889.532C797.113 889.633 797.073 889.736 797.029 889.837C796.856 890.233 796.688 890.619 796.521 891.003C796.447 891.173 796.371 891.343 796.297 891.513C796.242 891.337 796.172 891.146 796.082 890.932C794.958 893.343 793.819 895.716 793.06 898.272C793.085 898.259 793.11 898.246 793.134 898.234C792.915 898.645 792.688 899.051 792.458 899.455C792.405 899.258 792.333 899.063 792.196 898.703C791.837 899.981 791.838 899.981 791.156 900.881C790.914 901.196 790.678 901.501 790.442 901.807C790.199 902.125 789.962 902.434 789.726 902.742C789.538 902.984 789.357 903.218 789.175 903.452C789.338 903.534 789.499 903.614 789.658 903.694C789.398 904.029 789.132 904.36 788.856 904.684L787.562 905.116V906.411C787.286 906.512 787.019 906.609 786.752 906.707C785.835 907.274 785.835 907.275 785.376 908.381C785.238 908.739 785.105 909.086 784.972 909.433C784.318 909.651 784.317 909.651 783.676 909.865C783.529 910.305 783.387 910.733 783.244 911.16L782.354 911.457C782.069 911.503 781.793 911.548 781.518 911.592V912.455C780.726 913.391 780.725 913.39 779.79 914.182H778.927C778.826 914.457 778.728 914.724 778.63 914.992C778.124 916.01 778.124 916.01 776.957 916.367C776.599 916.505 776.252 916.639 775.905 916.773L775.474 918.068C775.098 918.242 774.732 918.411 774.367 918.58C774.009 918.7 773.662 918.815 773.314 918.931V919.794C772.874 920.088 772.447 920.374 772.02 920.658C770.825 921.692 769.919 922.363 768.431 922.925C767.845 923.089 767.845 923.088 767.271 923.248V924.112C766.25 924.672 765.24 925.231 764.248 925.839C762.764 927.075 761.311 928.011 759.607 928.915C758.842 929.31 758.084 929.72 757.341 930.157L756.909 931.02C755.644 931.968 754.614 932.67 753.077 933.071C752.765 933.107 752.462 933.142 752.159 933.178V934.042L751.296 934.474C750.935 934.676 750.584 934.872 750.233 935.068C749.806 935.306 749.391 935.537 748.976 935.769C747.83 936.411 746.793 936.992 745.532 937.361C745.29 937.407 745.055 937.451 744.82 937.495V938.359C742.131 939.653 739.593 941.117 737.049 942.676C735.343 943.729 733.665 944.846 731.835 945.671C731.123 945.958 730.416 946.259 729.71 946.562C728.93 947.359 728.284 947.939 727.325 948.535C726.907 948.764 726.5 948.985 726.094 949.206C724.858 949.891 723.811 950.413 722.435 950.742C722.119 950.789 721.813 950.834 721.507 950.879V951.742C720.774 952.122 720.041 952.503 719.31 952.886C719.001 953.048 718.702 953.205 718.403 953.362C716.782 954.199 715.276 955.001 713.844 956.141C712.942 956.943 712.942 956.944 712 957.282C711.283 957.45 710.566 957.619 709.85 957.787V958.651C709.207 958.972 708.572 959.306 707.939 959.646C707.516 959.876 707.104 960.1 706.692 960.324C705.872 960.769 705.053 961.219 704.237 961.673C702.644 962.64 701.031 963.546 699.386 964.421C699.054 964.597 698.731 964.767 698.409 964.938C696.768 965.815 695.146 966.682 693.431 967.405C693.142 967.511 692.861 967.614 692.58 967.717V968.58C690.242 969.714 687.887 970.812 685.7 972.223C684.711 972.864 683.721 973.451 682.685 974.014C680.186 975.335 677.733 976.688 675.338 978.187C674.471 978.735 673.599 979.275 672.721 979.806C671.111 980.607 669.627 981.406 668.161 982.45C667.086 983.22 666.338 983.669 665.046 983.985C664.72 984.032 664.403 984.077 664.086 984.122V984.987C662.56 985.597 661.246 986.161 659.872 987.075C658.615 987.915 657.347 988.671 656.03 989.41C655.733 989.576 655.443 989.736 655.154 989.897C654.542 990.237 653.931 990.579 653.318 990.919C652.734 991.243 652.15 991.568 651.566 991.894C651.085 992.17 650.618 992.439 650.151 992.707C649.531 993.06 649.53 993.059 648.922 993.405C647.691 994.113 646.794 994.489 645.391 994.768C644.995 994.818 644.611 994.867 644.227 994.916V995.78C642.554 996.443 641.029 997.024 639.262 997.371C638.895 997.417 638.539 997.462 638.183 997.506V998.37C637.435 998.62 636.689 998.874 635.949 999.146C635.152 999.44 634.354 999.732 633.555 1000.02C633.073 1000.19 632.605 1000.36 632.138 1000.53C615.45 1006.53 598.767 1005.95 582.379 999.289C581.976 999.124 581.585 998.963 581.193 998.802C577.891 997.606 574.845 996.049 571.752 994.394C569.72 993.305 567.678 992.267 565.598 991.274C564.414 990.752 564.413 990.752 563.492 990.167C563.274 989.513 563.274 989.513 563.061 988.871C562.036 988.944 562.036 988.944 560.902 988.871C559.949 988.236 559.009 987.654 558.015 987.091C557.293 986.682 557.293 986.682 556.585 986.282V985.418C555.363 985.244 554.475 985.014 553.397 984.398C552.688 983.954 551.977 983.512 551.264 983.074C550.917 982.861 550.581 982.655 550.244 982.45C549.184 981.797 548.119 981.184 547.002 980.633C544.678 979.503 542.477 978.269 540.293 976.888C537.514 975.118 534.763 973.348 531.787 971.926C530.186 971.17 528.708 970.329 527.229 969.354C524.171 967.32 521.037 965.619 517.732 964.019C517.077 963.706 517.076 963.706 516.434 963.4V962.536L514.707 962.105V961.241C513.414 961.328 513.414 961.328 512.341 960.769C511.943 960.562 511.558 960.362 511.172 960.161C510.478 959.804 509.785 959.445 509.095 959.082V958.219C504.685 956.824 504.685 956.824 500.892 953.902L500.46 953.038C498.8 953.201 498.8 953.2 497.89 952.461C497.006 951.743 497.006 951.743 496.041 951.187C493.83 950.013 491.637 948.811 489.456 947.583C489.133 947.401 488.819 947.225 488.506 947.048C487.453 946.455 486.401 945.861 485.349 945.267V944.404C483.736 944.404 482.883 943.916 481.566 943.026C478.851 941.092 478.85 941.092 472.57 937.823C471.829 937.44 471.829 937.439 471.102 937.064V936.2C468.718 935.837 468.717 935.837 466.703 934.338C465.501 933.454 464.273 932.74 462.953 932.045C461.972 931.575 461.972 931.575 461.172 931.02L460.74 929.725L459.202 929.212C458.453 929.035 458.452 929.034 457.718 928.861V927.997C456.255 927.997 454.981 927.132 453.832 926.271L453.4 924.976C452.05 924.976 451.512 924.792 450.379 924.112C449.893 923.141 449.893 923.141 448.409 922.331C447.66 921.923 447.659 921.922 446.925 921.522V920.658C446.068 920.543 446.068 920.543 445.198 920.227C445.051 919.786 444.909 919.358 444.767 918.931H443.902C443.099 918.128 442.351 917.328 441.422 916.669C440.218 915.861 439.307 915.293 438.533 914.047C438.451 913.799 438.37 913.559 438.29 913.319H437.427L436.995 912.024H436.132C435.838 911.437 435.553 910.866 435.268 910.296H434.404C433.448 909.459 432.756 908.711 432.138 907.598C432.028 907.341 431.921 907.092 431.814 906.843H430.95C429.41 905.209 428.148 903.502 427.308 901.419C427.225 901.061 427.146 900.714 427.065 900.367H426.201L425.77 898.208H424.906C424.053 896.535 423.249 894.848 422.488 893.131C422.292 892.684 422.293 892.683 422.101 892.244C421.266 890.34 420.456 888.447 419.807 886.47C419.548 885.639 419.548 885.639 419.294 884.825C415.052 868.654 415.052 868.654 414.712 851.813C414.701 851.431 414.69 851.061 414.68 850.691C414.647 849.61 414.616 848.53 414.59 847.45C414.582 847.106 414.574 846.772 414.566 846.439C414.533 845.27 414.528 844.117 414.545 842.947C414.784 841.592 414.978 840.308 415.031 838.932C415.032 838.143 415.032 838.143 415.032 837.369C415.035 836.461 415.036 835.552 415.035 834.644C415.034 833.993 415.034 833.342 415.034 832.691C415.035 831.324 415.036 829.957 415.034 828.59C415.032 826.825 415.031 825.06 415.033 823.295C415.035 821.914 415.036 820.533 415.035 819.153C415.035 818.489 415.034 817.824 415.034 817.16C415.036 816.22 415.037 815.28 415.035 814.339C415.034 814.039 415.033 813.748 415.032 813.456C415.031 811.946 415.005 810.468 414.878 808.964C414.633 806.301 414.498 803.676 414.506 801.001C414.51 800.517 414.513 800.047 414.517 799.577C414.521 798.52 414.525 797.463 414.529 796.406C414.541 794.39 414.551 792.374 414.557 790.359C414.57 785.38 414.586 780.401 414.613 775.423C414.628 772.65 414.641 769.877 414.647 767.104C414.65 765.915 414.652 764.727 414.656 763.538C414.745 751.476 414.115 739.501 411.522 727.674C411.241 726.829 410.967 725.981 410.701 725.13C410.549 724.637 410.402 724.158 410.255 723.68C409.855 722.391 409.451 721.109 409.119 719.801C408.81 718.543 408.488 717.727 407.691 716.692C406.175 714.53 406.174 714.529 405.047 712.131C404.604 711.077 404.311 710.505 403.404 709.794C403.1 709.617 402.806 709.443 402.511 709.271C401.605 708.73 400.695 708.228 399.755 707.75C399.375 707.565 399.375 707.564 399.003 707.382V706.519C392.584 704.341 387.253 704.128 380.627 705.224C379.162 705.495 377.707 705.744 376.229 705.925C375.52 706.007 375.52 706.007 374.825 706.087V706.95C373.806 707.226 372.789 707.505 371.771 707.787C371.134 707.965 371.133 707.964 370.508 708.138C367.925 708.836 365.495 709.561 363.127 710.821C362.566 711.126 362.001 711.424 361.433 711.715C360.554 712.159 359.676 712.604 358.798 713.049C357.179 713.878 355.606 714.648 353.89 715.258C353.522 715.369 353.164 715.477 352.807 715.585V716.449C351.246 717.281 349.78 718.069 348.058 718.499C347.622 718.554 347.622 718.554 347.194 718.608V719.471C346.164 720.026 345.175 720.435 344.064 720.82C343.661 720.948 343.269 721.073 342.877 721.198V722.061C341.172 722.89 339.515 723.783 337.858 724.705C336.748 725.331 335.753 725.884 334.529 726.241C334.285 726.288 334.048 726.333 333.811 726.378V727.242C332.127 728.29 332.126 728.29 330.369 729.215C329.916 729.443 329.475 729.665 329.035 729.886C327.843 730.49 326.732 731.053 325.447 731.421C325.208 731.468 324.976 731.513 324.744 731.559V732.423C324.015 732.685 323.295 732.975 322.586 733.286C322.204 734.259 322.204 734.258 321.062 734.728C317.904 736.208 314.935 737.85 311.981 739.708C310.358 740.75 308.905 741.767 307.031 742.275C306.602 742.314 306.601 742.314 306.18 742.353V743.216C303.845 744.629 303.845 744.63 301.377 745.807C300.521 746.217 299.674 746.646 298.841 747.102C297.986 747.961 297.431 748.458 296.336 749.044C295.426 749.471 294.519 749.903 293.614 750.34C293.162 750.56 292.722 750.774 292.283 750.988C291.436 751.397 290.598 751.826 289.774 752.283C288.983 753.08 288.552 753.547 287.503 753.988C286.974 754.149 286.973 754.148 286.455 754.306C286.096 754.418 285.746 754.527 285.397 754.635C285.124 754.716 284.859 754.795 284.594 754.873V755.737C283.406 756.301 282.247 756.876 281.138 757.583C279.833 758.438 278.771 759.131 277.254 759.541C276.96 759.569 276.676 759.596 276.391 759.622V760.486C274.568 761.569 272.804 762.634 270.751 763.21C270.32 763.311 269.901 763.409 269.482 763.507V764.371C269.101 764.586 268.731 764.793 268.361 765.001C267.853 765.282 267.359 765.556 266.865 765.828C265.325 766.686 263.865 767.439 262.172 767.923C261.722 768.037 261.284 768.146 260.848 768.256V769.12C259.714 769.673 258.584 770.218 257.504 770.87C256.243 771.64 255.202 772.15 253.752 772.466C253.376 772.503 253.01 772.538 252.646 772.574V773.438C252.027 773.747 251.397 774.035 250.762 774.308C250.329 774.489 249.908 774.664 249.488 774.84C239.662 778.969 229.694 782.453 218.972 782.599C218.439 782.603 217.922 782.607 217.405 782.612C214.043 782.64 210.858 782.467 207.549 781.846C206.876 781.72 206.2 781.608 205.521 781.519C204.821 781.436 204.124 781.324 203.428 781.208C202.553 780.761 201.81 780.369 200.846 780.163C193.931 779.135 187.055 775.903 180.887 772.759C180.005 772.307 179.121 771.861 178.235 771.417C177.847 771.223 177.469 771.035 177.092 770.847V769.984C175.832 770.068 175.832 770.068 174.893 769.603C174.368 769.332 174.368 769.331 173.854 769.066C171.881 768.048 169.923 767.006 167.98 765.933C167.556 765.696 167.143 765.465 166.73 765.235C166.237 764.961 165.757 764.694 165.278 764.428C164.79 764.152 164.316 763.884 163.843 763.616C162.557 762.914 162.557 762.913 161.55 762.212V761.349C159.694 761.111 159.693 761.111 158.071 760.126C157.519 759.795 156.963 759.468 156.403 759.15C156.118 758.99 155.84 758.834 155.562 758.679C155.272 758.516 154.99 758.357 154.708 758.199C154.41 758.031 154.121 757.869 153.832 757.706C152.294 756.841 150.758 755.974 149.21 755.126C147.285 754.076 145.413 752.955 143.552 751.797C142.173 750.932 140.81 750.115 139.361 749.371C138.793 749.097 138.793 749.097 138.236 748.828V747.965C136.99 748.058 136.99 748.058 136.153 747.587C135.88 747.422 135.614 747.262 135.349 747.102C134.863 746.808 134.391 746.523 133.919 746.239V745.374C132.301 745.102 132.301 745.102 130.831 744.3C130.542 744.152 130.26 744.008 129.979 743.864C128.989 743.362 127.999 742.859 127.011 742.353V741.49C124.659 740.834 122.775 740.045 120.724 738.71C119.296 737.761 117.89 736.88 116.353 736.119C115.866 735.89 115.395 735.667 114.923 735.445V734.581C112.498 734.043 110.565 733.037 108.487 731.711C105.811 729.984 103.102 728.382 100.298 726.869C99.9859 726.703 99.6826 726.54 99.3799 726.378V725.515C97.3354 725.238 97.3348 725.238 95.4941 724.22V723.357C94.5805 723.413 94.58 723.412 93.6172 722.93C93.2187 722.736 92.832 722.546 92.4453 722.358C91.2844 721.83 91.284 721.83 90.3135 721.198L89.8818 719.903H88.1553V719.039C86.8948 719.132 86.8942 719.131 85.9893 718.627C85.6615 718.437 85.3435 718.252 85.0254 718.068C84.7022 717.882 84.3879 717.702 84.0742 717.522C83.7004 717.304 83.3374 717.092 82.9746 716.88C81.1326 715.841 79.3231 714.773 77.5361 713.642C74.9348 711.991 72.3169 710.405 69.6172 708.92C68.1629 708.161 68.1626 708.161 67 707.382L66.5684 706.087C65.3262 706.186 65.3262 706.186 64.5322 705.704C64.2598 705.524 63.9949 705.348 63.7305 705.173C63.2898 704.881 63.2892 704.881 62.8574 704.595C62.5504 704.387 62.2521 704.185 61.9541 703.983C60.8705 703.272 59.8351 702.549 58.7969 701.77V700.907C57.8125 700.737 57.2089 700.607 56.4766 699.908C55.7753 699.179 55.7753 699.179 54.6455 698.432C53.2771 697.533 51.9836 696.556 50.6973 695.543C50.4054 695.312 50.1221 695.086 49.8389 694.862C49.3954 694.518 49.3948 694.518 48.96 694.181C48.6739 693.954 48.3959 693.733 48.1182 693.513C47.2298 692.814 46.7537 692.36 46.2432 691.342C46.1081 691.071 45.9768 690.808 45.8457 690.545C45.2661 690.418 44.6894 690.273 44.1182 690.113C43.9348 689.737 43.757 689.372 43.5791 689.007C43.469 688.649 43.3617 688.302 43.2549 687.954H42.3916L41.96 686.659H41.0967C40.6649 685.796 40.2325 684.932 39.8008 684.069H38.9375L38.5059 682.774H37.6426C37.1801 681.877 37.1799 681.877 36.752 680.777C36.5476 680.259 36.548 680.259 36.3477 679.751H35.4834L35.0518 677.593H34.1885C33.501 676.628 33.5013 676.627 32.8936 675.434L32.0303 673.276C29.7882 669.614 27.2178 664.696 27.2002 660.296C27.2277 659.865 27.2545 659.447 27.2812 659.029H26.417C26.0375 656.825 25.6676 654.619 25.3086 652.411C25.2452 652.019 25.1836 651.638 25.1221 651.257C25.081 651.004 25.0407 650.751 25 650.497V487.174C25.0552 486.79 25.1114 486.406 25.1709 486.023C25.2276 485.671 25.2829 485.328 25.3379 484.987C25.5164 483.835 25.7261 482.725 25.9854 481.586C26.8488 480.723 26.8495 480.723 27.0771 479.8C27.3512 478.096 27.6424 476.575 28.3066 474.975C28.9737 473.57 28.9736 473.569 29.8711 470.469C30.2376 469.156 30.4457 468.09 31.3672 467.073C32.3652 466.174 32.3653 466.173 34.1885 462.59C34.6204 461.486 34.8563 460.636 35.6729 459.783C35.9021 459.563 36.1251 459.35 36.3477 459.136C36.7639 458.408 37.1946 457.687 37.6426 456.978L38.9375 456.546C39.0329 456.124 39.0335 456.123 39.127 455.709C39.2839 454.731 39.2836 454.731 40.2598 454.28C40.5442 454.169 40.8206 454.062 41.0967 453.955C40.9981 453.056 40.998 453.056 41.6748 452.477C42.3915 451.797 42.3913 451.796 42.9326 451.13C44.942 448.605 47.4347 446.316 50.2939 444.789C50.5428 444.676 50.7848 444.567 51.0264 444.457V443.594C52.0209 442.838 53.0103 442.127 54.0479 441.435C55.3733 440.569 56.6249 439.72 57.8379 438.701C58.9657 437.754 60.1216 436.87 61.3252 436.021C61.5666 435.853 61.8009 435.689 62.0352 435.526C63.4142 434.535 64.7074 433.714 66.3125 433.116C66.693 433.008 67.0623 432.904 67.4316 432.8V431.937H69.1592V431.074C70.9016 429.626 72.8286 428.49 74.96 427.728C75.4828 427.544 75.9905 427.366 76.498 427.188C77.279 426.269 77.2793 426.27 78.2793 426.055C78.5545 426 78.8217 425.946 79.0889 425.893V425.03H80.3838V424.166H81.6787V423.302C84.2881 421.92 86.8966 420.543 89.4229 419.012C92.4027 417.198 95.4384 415.479 98.4805 413.772C98.7651 413.613 99.0411 413.458 99.3174 413.303C99.8868 412.984 100.457 412.666 101.026 412.347C102.542 411.501 104.054 410.651 105.547 409.765C105.889 409.559 106.222 409.359 106.555 409.159C107.213 408.766 107.87 408.371 108.527 407.976C110.066 407.032 111.434 406.155 113.19 405.696C113.486 405.664 113.772 405.633 114.059 405.602V404.738C115.089 404.183 116.079 403.773 117.189 403.389C117.593 403.261 117.984 403.136 118.376 403.011V402.148C118.951 401.858 119.527 401.571 120.104 401.284C122.002 400.39 123.786 399.439 125.527 398.262C128.582 396.181 131.8 394.396 135.214 392.973C135.507 392.863 135.792 392.757 136.077 392.65V391.786C136.98 391.31 137.862 390.902 138.823 390.555C139.174 390.441 139.515 390.331 139.855 390.221C140.383 390.049 140.383 390.049 140.9 389.88C141.299 389.752 141.299 389.752 141.689 389.627V388.764C141.983 388.617 142.269 388.475 142.554 388.332C143.731 387.608 144.901 386.943 146.139 386.325C148.277 385.291 150.457 384.326 152.375 382.908C154.607 381.208 156.912 379.552 159.661 378.888C160.179 378.861 160.179 378.861 160.687 378.834V377.97H161.981V377.107L164.571 376.243V375.38C166.27 374.148 168.158 373.157 170.031 372.216C171.64 371.435 173.135 370.68 174.609 369.659C175.871 368.715 177.168 367.838 178.488 366.978C178.9 366.711 178.901 366.71 179.305 366.449C180.68 365.546 182.023 364.695 183.538 364.038C183.842 363.931 184.137 363.827 184.432 363.723V362.86C185.295 362.428 185.295 362.428 186.028 361.88C187.201 360.97 188.355 360.071 189.633 359.313C190.35 358.92 191.061 358.516 191.771 358.111C192.768 356.115 194.981 354.549 196.952 353.605C197.246 353.522 197.531 353.442 197.815 353.362V352.498L199.11 352.067V351.203C199.65 350.52 199.649 350.519 200.405 349.908C200.717 349.77 201.02 349.637 201.323 349.503C202.132 349.045 202.132 349.044 202.456 348.127C202.493 347.852 202.529 347.585 202.564 347.318H203.428C203.721 346.584 204.006 345.871 204.291 345.158H205.154C205.447 343.688 205.448 343.688 206.405 342.465C207.899 340.403 209.287 338.337 210.497 336.092C210.873 335.372 211.251 334.652 211.631 333.934C214.22 329.833 215.251 324.929 216.231 320.229C216.419 319.327 216.606 318.426 216.812 317.528C217.252 316.041 217.657 314.664 217.839 313.123C217.915 311.855 217.99 310.59 218.106 309.325C218.594 307.863 218.594 307.862 218.86 304.687C218.898 304.209 218.933 303.744 218.97 303.281C219.829 292.307 220.135 281.419 219.591 270.415C219.473 268.477 219.336 266.556 219.489 264.617C219.9 260.498 219.9 260.498 219.893 251.45C219.892 250.494 219.891 249.536 219.892 248.579C219.893 246.567 219.893 244.555 219.892 242.543C219.889 239.947 219.887 237.35 219.89 234.753C219.892 232.717 219.892 230.68 219.892 228.644C219.891 227.668 219.891 226.693 219.891 225.717C219.895 221.252 219.971 216.789 219.601 212.336C219.477 211.147 219.398 210.076 219.489 208.883C219.681 207.409 219.855 206.023 219.753 204.534C219.358 196.98 219.357 196.98 219.617 189.411C219.774 184.12 219.935 178.864 219.552 173.578C219.442 172.076 219.383 170.644 219.563 169.147C219.74 168.004 219.861 166.893 219.944 165.737C220.08 163.514 220.172 161.289 220.481 159.082C220.634 158.005 220.722 156.949 220.79 155.861C220.996 152.241 221.268 148.781 222.396 145.321C222.84 144.015 223.176 142.72 223.503 141.381C224.044 139.123 224.706 136.97 225.571 134.814C225.767 134.35 225.957 133.899 226.147 133.449C226.488 132.639 226.83 131.829 227.173 131.02H228.036C227.942 129.755 227.943 129.755 228.463 128.839C229.339 127.342 230.191 125.848 230.978 124.301C231.152 123.943 231.321 123.596 231.49 123.248H232.354V121.953C232.638 121.733 232.914 121.52 233.19 121.306C233.493 121.086 233.787 120.871 234.081 120.658L234.513 119.363C235.095 119.089 235.671 118.801 236.239 118.499L236.671 116.773C237.25 116.492 237.826 116.203 238.398 115.908C239.309 113.503 240.606 112.28 242.877 111.025C243.115 110.924 243.348 110.826 243.579 110.728V109.865L245.737 109.001V108.138C245.974 107.927 246.203 107.722 246.433 107.517C246.747 107.288 247.052 107.065 247.356 106.842C248.274 106.162 249.158 105.565 250.17 105.034C250.424 104.915 250.671 104.8 250.918 104.684V103.821C252.089 102.942 253.132 102.213 254.534 101.77C254.773 101.733 255.004 101.697 255.235 101.661V100.798C256.085 100.337 256.085 100.337 257.017 100.123C257.292 100.059 257.559 99.9972 257.826 99.9349V99.0716L259.984 98.2083V97.344C261.335 96.539 262.556 95.7558 264.06 95.2933C264.289 95.2566 264.511 95.2214 264.733 95.1858V94.3226C265.267 93.9538 265.268 93.9535 265.791 93.5921C266.497 93.1841 266.497 93.1843 267.189 92.7845C268.526 91.9997 269.658 91.3634 271.164 90.9915C271.473 90.9496 271.773 90.9091 272.073 90.8685V90.0052C273.281 89.0904 273.281 89.0898 274.528 88.8714C274.868 88.8163 275.198 88.7637 275.527 88.7103V87.846C276.406 87.3619 276.406 87.3622 277.523 87.1722C277.872 87.108 278.211 87.045 278.549 86.9827V86.1194C279.083 85.7507 279.083 85.7504 279.606 85.389C280.312 84.981 280.313 84.9812 281.005 84.5813C282.341 83.7966 283.474 83.1603 284.979 82.7884C285.289 82.7465 285.589 82.706 285.889 82.6653V81.8021C287.564 80.8794 289.237 79.9514 290.896 79.0003C291.469 78.6695 291.469 78.6693 292.03 78.345C292.807 77.8967 293.585 77.4481 294.361 76.9993C296.119 75.9772 297.857 74.9032 299.715 74.0716C301.346 73.4073 302.669 72.6655 304.075 71.6028C305.214 70.7404 306.001 70.1906 307.391 69.8382C307.869 69.7752 307.87 69.775 308.339 69.7132V68.8499C308.968 68.4972 309.597 68.1456 310.229 67.7972C310.494 67.6507 310.752 67.5077 311.01 67.3655C312.418 66.5832 313.648 65.9026 315.214 65.5159C315.518 65.4752 315.814 65.4353 316.109 65.3958V64.5325C316.403 64.3857 316.689 64.2434 316.974 64.1009C317.335 63.8991 317.686 63.703 318.036 63.5071C318.671 63.1531 318.671 63.1532 319.294 62.806C320.44 62.1637 321.476 61.583 322.737 61.2142C322.979 61.1683 323.214 61.1239 323.449 61.0794V60.2151C323.935 59.9444 323.936 59.9444 324.412 59.679C325.057 59.323 325.057 59.3228 325.688 58.9739C326.903 58.301 328.089 57.6699 329.372 57.139C330.311 56.7787 331.192 56.3605 332.084 55.8978V55.0345C332.772 54.6824 333.46 54.3312 334.148 53.9817C334.437 53.8353 334.718 53.6923 334.998 53.5501C336.369 52.8463 337.703 52.1378 339.188 51.7005C339.414 51.6598 339.635 51.6199 339.855 51.5804V50.7171L343.74 49.4222V48.5589C344.474 48.4121 345.187 48.2697 345.899 48.1272V47.263H347.194V46.3997C349.804 45.0173 352.412 43.6406 354.938 42.1097C358.199 40.1257 361.497 38.1314 364.923 36.4437C365.93 35.955 366.922 35.4487 367.911 34.9241C368.4 34.661 368.874 34.4051 369.348 34.1497C370.312 33.6308 371.274 33.1088 372.235 32.5843C372.904 32.203 372.905 32.2032 373.561 31.8294C373.981 31.5909 374.39 31.3588 374.799 31.1272C376.056 30.4005 376.983 29.9944 378.416 29.7073C378.81 29.658 379.192 29.6106 379.574 29.5628V28.6985C380.751 28.2421 381.903 27.7572 383.051 27.2298C385.307 26.1677 387.549 25.0947 389.9 24.2581C390.206 24.1532 390.503 24.0514 390.8 23.9495C393.267 23.072 395.699 22.2354 398.274 21.7376C398.951 21.6219 399.625 21.4948 400.298 21.3597C403.245 20.4716 406.025 20.2083 409.082 20.0999ZM578.921 369.4C577.644 369.88 577.644 369.879 576.316 369.952C574.88 370.043 573.446 370.13 572.013 370.263C569.956 370.867 569.956 370.867 567.857 371.316C566.933 371.511 566.013 371.728 565.105 371.99C564.959 372.283 564.816 372.569 564.674 372.854C564.242 372.911 563.822 372.966 563.402 373.022C561.65 373.227 560.138 373.794 558.506 374.446C558.126 374.602 557.757 374.753 557.388 374.905C555.174 375.781 553.032 376.695 550.951 377.857C549.91 378.453 548.874 379.03 547.808 379.58C547.441 379.761 547.085 379.936 546.729 380.112C546.353 380.298 545.988 380.48 545.622 380.66C545.347 380.795 545.08 380.925 544.813 381.056V381.92C543.95 381.92 543.95 381.92 543.231 382.237C542.804 382.458 542.804 382.458 542.386 382.675C542.073 382.836 541.769 382.992 541.465 383.148C540.812 383.484 540.157 383.817 539.501 384.146C538.681 384.554 537.862 384.964 537.043 385.373V386.238C536.18 386.238 536.179 386.237 535.366 386.633C535.037 386.819 534.718 387.001 534.398 387.182C533.377 387.76 532.369 388.348 531.376 388.974C530.28 389.678 529.211 390.381 528.028 390.932C526.486 391.572 525.035 392.186 523.659 393.145V394.008C522.796 394.008 522.796 394.009 521.393 394.791C520.368 395.395 519.351 395.95 518.289 396.491C517.913 396.674 517.548 396.852 517.183 397.031V397.894C514.772 398.435 512.448 399.372 510.491 400.889C509.54 401.674 508.679 402.217 507.604 402.805C506.554 403.371 505.517 403.944 504.497 404.561C502.498 405.792 500.488 406.904 498.376 407.932C497.584 408.307 496.798 408.699 496.028 409.119L495.597 409.983C494.826 410.326 494.825 410.326 493.923 410.603C492.883 410.939 492.252 411.172 491.465 411.941C491.255 412.156 491.051 412.364 490.848 412.573C490.407 412.719 489.979 412.862 489.552 413.004V413.868H488.257C487.557 414.335 486.852 414.795 486.122 415.212C485.802 415.388 485.491 415.559 485.181 415.73C484.48 416.117 483.778 416.504 483.076 416.89C481.338 417.832 479.616 418.782 477.94 419.831C474.706 421.873 471.419 423.646 467.984 425.323C467.538 425.538 467.103 425.747 466.67 425.956V426.82C465.699 426.82 465.698 426.82 462.784 428.547V429.41C461.921 429.41 461.921 429.411 461.081 429.788C460.761 429.953 460.451 430.114 460.141 430.274C459.582 430.56 459.024 430.847 458.468 431.137V432C457.093 432 457.092 432.001 451.612 435.698C451.301 435.908 450.998 436.113 450.696 436.318C450.256 436.611 449.829 436.897 449.401 437.182C448.961 437.476 448.533 437.76 448.105 438.045C445.608 439.682 443.049 441.293 440.767 443.226L440.335 444.089C439.04 444.521 439.039 444.521 438.176 445.411C436.398 447.053 436.398 447.054 434.398 448.434C433.171 449.262 432.292 449.7 431.774 451.103C431.737 451.485 431.737 451.486 431.7 451.861C431.113 452.007 430.543 452.15 429.973 452.292V453.156H429.109L428.678 454.45C427.383 455.314 427.383 455.314 426.52 456.367C426.226 456.743 425.94 457.108 425.655 457.473C424.681 458.339 424.395 458.634 424.063 459.928C424.018 460.267 423.973 460.598 423.929 460.927H423.065C422.648 461.813 422.221 462.628 421.657 463.43C419.58 466.275 418.252 469.383 416.924 472.624C416.81 472.904 416.699 473.176 416.589 473.448C415.639 475.762 414.828 477.91 414.565 480.408C414.52 480.977 414.475 481.529 414.431 482.081C413.943 482.569 413.943 482.569 413.369 485.511C413.29 485.932 413.213 486.342 413.136 486.75C412.669 489.225 412.198 491.684 412.002 494.198C411.941 495.343 411.87 496.485 411.748 497.626C411.136 502.936 410.853 508.16 410.868 513.505C410.871 514.374 410.872 515.243 410.871 516.112C410.868 518.5 410.868 520.888 410.872 523.276C410.877 525.818 410.878 528.36 410.878 530.903C410.878 535.182 410.88 539.461 410.886 543.741C410.893 548.688 410.897 553.636 410.896 558.584C410.896 563.924 410.898 569.264 410.902 574.604C410.903 576.129 410.904 577.653 410.904 579.178C410.906 590.805 410.541 602.58 411.641 614.17C411.756 615.281 411.84 616.355 411.84 617.472C411.681 623.369 411.68 623.37 417.021 643.55H417.885C417.885 645.399 418.596 646.829 419.881 648.163C420.181 648.45 420.181 648.45 420.475 648.731L420.906 650.026C421.2 650.172 421.486 650.315 421.771 650.457V651.321C422.138 651.607 422.138 651.607 422.499 651.887C423.003 652.255 423.003 652.256 423.497 652.617C424.614 653.82 425.277 654.665 426.87 655.125C427.347 655.166 427.347 655.166 427.814 655.206V656.501L428.678 656.07C428.971 656.51 429.256 656.938 429.541 657.366C430.465 657.551 431.363 657.657 432.259 657.711C432.876 657.786 433.047 657.789 433.858 657.797C433.872 657.783 433.886 657.768 433.9 657.754C434.547 657.749 435.201 657.724 435.871 657.681C436.524 657.632 437.178 657.585 437.831 657.539C438.163 657.517 438.486 657.496 438.809 657.475C439.804 657.409 440.783 657.365 441.78 657.375C443.281 657.405 444.574 657.381 446.05 657.063C448.748 656.196 451.452 655.43 454.201 654.744C454.802 654.596 454.802 654.596 455.392 654.45C456.146 654.264 456.9 654.077 457.654 653.891C458.224 653.751 458.778 653.616 459.331 653.48V652.617C460.626 652.617 460.626 652.616 461.732 652.076C462.959 651.452 464.147 650.948 465.429 650.457C466.139 650.192 466.842 649.904 467.533 649.594C468.959 648.507 470.385 647.685 471.979 646.869C475.107 645.275 478.15 643.612 481.106 641.715C483.562 640.138 486.029 638.756 488.661 637.489C489.111 637.279 489.111 637.279 489.552 637.074V636.21C490.286 636.063 490.999 635.921 491.711 635.779V634.915H493.006C494.288 634.06 495.594 633.269 496.919 632.483C497.423 632.185 497.423 632.185 497.917 631.893C499.532 630.929 501.098 629.953 502.845 629.248C503.799 628.871 503.799 628.87 504.631 628.265C505.553 627.526 505.553 627.525 506.759 626.845C509.322 625.406 511.872 623.949 514.399 622.447C516.735 621.058 519.053 619.694 521.5 618.509C522.498 618.05 522.499 618.051 523.228 617.646L523.659 616.783C523.962 616.691 524.256 616.601 524.55 616.512C524.972 616.43 524.972 616.431 525.386 616.351V615.487C527.627 615.041 527.627 615.042 536.719 609.577C538.791 608.327 540.823 607.031 543.064 606.102C544.381 605.557 544.382 605.557 545.247 605.004C546.432 604.078 547.551 603.322 548.889 602.617C549.265 602.442 549.629 602.273 549.994 602.104V601.24C551.289 601.24 551.29 601.24 552.234 600.7C553.529 599.895 554.856 599.224 556.223 598.55C556.454 598.437 556.678 598.328 556.902 598.218V597.354C557.766 597.354 557.766 597.354 558.899 596.599C560.252 595.662 561.668 594.936 563.146 594.217C563.371 594.109 563.59 594.005 563.81 593.901V593.037C565.655 592.422 567.232 591.76 568.64 590.393C569.035 589.984 569.036 589.984 569.423 589.583L570.718 589.152V588.288H572.013L572.553 587.748C573.257 586.983 573.257 586.983 574.047 586.553C574.814 586.135 575.572 585.701 576.33 585.266C576.741 584.241 576.741 584.241 578.165 583.619C579.294 583.002 579.971 582.492 580.917 581.569C581.896 580.478 581.896 580.479 583.13 579.788C583.46 579.596 583.781 579.409 584.102 579.222C585.086 577.254 586.752 575.585 588.445 574.202C597.081 567.22 601.757 556.567 604.836 546.17C604.979 545.665 605.117 545.174 605.256 544.683C605.85 542.654 606.298 540.74 606.552 538.639C606.714 537.033 606.838 535.427 607.179 533.847C607.876 530.82 608.106 527.787 608.275 524.694C608.293 524.367 608.309 524.049 608.326 523.732C608.824 514.635 608.83 505.54 608.814 496.432C608.81 493.949 608.808 491.466 608.809 488.983C608.809 484.805 608.807 480.626 608.802 476.449C608.795 471.613 608.79 466.778 608.79 461.943C608.79 456.713 608.789 451.482 608.785 446.252C608.784 444.76 608.783 443.266 608.782 441.774C608.782 439.397 608.781 437.02 608.777 434.643C608.776 433.766 608.774 432.888 608.772 432.011C608.774 428.235 608.877 424.452 608.464 420.694C608.371 419.863 608.37 419.863 608.278 419.049L608.71 418.617C608.416 418.471 608.132 418.327 607.847 418.185C609.731 408.706 606.757 394.705 602.775 386.069C602.591 385.686 602.413 385.313 602.234 384.942C600.894 381.83 599.688 379.374 597.27 376.955C596.725 376.41 596.725 376.409 596.19 375.875C594.826 374.11 594.218 373.505 592.008 373.042C591.668 372.978 591.338 372.916 591.009 372.854V371.99C588.339 370.21 585.3 369.747 582.132 369.778C581.35 369.808 580.567 369.829 579.784 369.831L578.921 369.4Z" fill="black"/>
</svg>
